<svg width="59" height="59" viewBox="0 0 59 59" fill="none" xmlns="http://www.w3.org/2000/svg">
<path d="M59 29.5006C59 13.3904 45.6383 0 29.5 0C13.3901 0 0 13.42 0 29.5302C0 45.6676 13.3901 59 29.5 59C45.6383 59 59 45.6392 59 29.5006ZM13.2754 29.4994C13.2754 28.8059 13.5641 28.2555 14.1713 27.62L24.8441 16.9765C25.2489 16.6001 25.798 16.3101 26.4631 16.3101C26.7682 16.306 27.0711 16.363 27.3537 16.4779C27.6364 16.5928 27.8932 16.7632 28.1089 16.979C28.3246 17.1948 28.4948 17.4517 28.6096 17.7344C28.7243 18.0172 28.7812 18.32 28.7769 18.6251C28.7769 19.3187 28.5177 19.8962 28.0834 20.3022L24.1494 24.177L20.3314 27.388L27.0123 27.1288H43.4121C44.7991 27.1288 45.7542 28.1111 45.7542 29.4994C45.7542 30.8877 44.7991 31.8712 43.4109 31.8712H27.0123L20.361 31.6392L24.1494 34.7921L28.0834 38.6966C28.5248 39.144 28.7738 39.7463 28.7769 40.3748C28.7769 41.7051 27.765 42.659 26.4631 42.659C25.798 42.659 25.2489 42.4283 24.8441 42.0235L14.1713 31.3504C13.5357 30.7149 13.2754 30.1941 13.2754 29.4994Z" fill="white"/>
</svg>
