<svg width="45" height="45" viewBox="0 0 45 45" fill="none" xmlns="http://www.w3.org/2000/svg">
<path d="M22.2366 44C33.9774 44 43.4731 34.3619 43.4731 22.5C43.4731 10.6381 33.9774 1 22.2366 1C10.4958 1 1 10.6381 1 22.5C1 34.3619 10.4958 44 22.2366 44Z" stroke="#00554F" stroke-width="2" stroke-linecap="round" stroke-linejoin="round"/>
<mask id="path-2-outside-1_9_186" maskUnits="userSpaceOnUse" x="9.17871" y="20.3811" width="27" height="17" fill="black">
<rect fill="white" x="9.17871" y="20.3811" width="27" height="17"/>
<path d="M25.3862 23.3811C30.6609 24.388 32.8465 27.0902 32.8465 27.0902C33.752 28.6796 32.8465 30.866 32.8465 30.866C29.7875 34.7238 25.1462 35.129 22.2133 35.129C19.2814 35.129 14.6402 34.7238 11.5811 30.866C11.5811 30.866 10.6757 28.6796 11.5811 27.0902C11.5811 27.0902 13.7667 24.3889 19.0414 23.3811"/>
</mask>
<path d="M25.7613 21.4166C24.6763 21.2094 23.6288 21.9211 23.4217 23.0061C23.2146 24.0911 23.9263 25.1385 25.0112 25.3456L25.7613 21.4166ZM32.8465 27.0902L34.5843 26.1002C34.5307 26.0061 34.4696 25.9166 34.4015 25.8324L32.8465 27.0902ZM32.8465 30.866L34.4136 32.1086C34.5288 31.9633 34.6233 31.8026 34.6943 31.6312L32.8465 30.866ZM11.5811 30.866L9.73334 31.6312C9.80431 31.8026 9.89878 31.9633 10.014 32.1086L11.5811 30.866ZM11.5811 27.0902L10.0263 25.8322C9.95817 25.9164 9.89697 26.006 9.84334 26.1002L11.5811 27.0902ZM19.4167 25.3456C20.5017 25.1382 21.2131 24.0907 21.0058 23.0057C20.7985 21.9208 19.751 21.2093 18.666 21.4166L19.4167 25.3456ZM25.0112 25.3456C27.3671 25.7953 28.9857 26.6131 29.9873 27.2788C30.4903 27.6132 30.842 27.9121 31.0555 28.112C31.1622 28.212 31.2342 28.287 31.2731 28.3291C31.2925 28.3501 31.3036 28.3629 31.3066 28.3664C31.3081 28.3681 31.3076 28.3675 31.3051 28.3645C31.3038 28.363 31.302 28.3608 31.2998 28.3581C31.2986 28.3567 31.2974 28.3552 31.296 28.3535C31.2953 28.3526 31.2946 28.3517 31.2938 28.3508C31.2934 28.3503 31.2928 28.3496 31.2927 28.3494C31.2921 28.3486 31.2915 28.3479 32.8465 27.0902C34.4015 25.8324 34.4009 25.8317 34.4003 25.8309C34.4 25.8306 34.3994 25.8298 34.399 25.8293C34.3981 25.8282 34.3971 25.827 34.3962 25.8259C34.3943 25.8235 34.3922 25.821 34.39 25.8183C34.3856 25.8129 34.3806 25.8069 34.375 25.8003C34.3639 25.7869 34.3505 25.771 34.3347 25.7527C34.3031 25.7162 34.2621 25.6699 34.2115 25.6151C34.1102 25.5055 33.9703 25.3615 33.7897 25.1924C33.4285 24.8542 32.9042 24.4146 32.2015 23.9476C30.7916 23.0105 28.68 21.9737 25.7613 21.4166L25.0112 25.3456ZM31.1087 28.0801C31.2348 28.3015 31.2946 28.708 31.2087 29.2738C31.1703 29.5266 31.1115 29.7512 31.0623 29.9111C31.0382 29.9895 31.0176 30.0482 31.0052 30.0822C30.999 30.0991 30.995 30.1096 30.9937 30.1129C30.993 30.1146 30.9931 30.1145 30.9939 30.1125C30.9943 30.1115 30.9949 30.11 30.9957 30.108C30.9961 30.1071 30.9965 30.106 30.997 30.1047C30.9973 30.1041 30.9975 30.1035 30.9978 30.1028C30.9979 30.1025 30.9982 30.102 30.9982 30.1018C30.9985 30.1013 30.9987 30.1007 32.8465 30.866C34.6943 31.6312 34.6945 31.6307 34.6948 31.6301C34.6948 31.6299 34.6951 31.6293 34.6952 31.6289C34.6956 31.6281 34.6959 31.6273 34.6963 31.6264C34.697 31.6246 34.6978 31.6227 34.6986 31.6207C34.7003 31.6166 34.7022 31.612 34.7042 31.6068C34.7084 31.5964 34.7134 31.5839 34.7192 31.5691C34.7307 31.5397 34.7452 31.5016 34.762 31.4556C34.7956 31.3639 34.8387 31.2393 34.8853 31.0879C34.9776 30.7882 35.0886 30.3669 35.1634 29.8744C35.3038 28.9497 35.3636 27.4682 34.5843 26.1002L31.1087 28.0801ZM31.2794 29.6233C28.8364 32.7042 25.0608 33.129 22.2133 33.129V37.129C25.2316 37.129 30.7385 36.7433 34.4136 32.1086L31.2794 29.6233ZM22.2133 33.129C19.3669 33.129 15.5912 32.7043 13.1483 29.6233L10.014 32.1086C13.6891 36.7433 19.1959 37.129 22.2133 37.129V33.129ZM11.5811 30.866C13.4289 30.1007 13.4292 30.1013 13.4294 30.1018C13.4295 30.102 13.4297 30.1025 13.4298 30.1028C13.4301 30.1035 13.4304 30.1041 13.4306 30.1047C13.4311 30.106 13.4316 30.1071 13.432 30.108C13.4328 30.11 13.4334 30.1115 13.4338 30.1125C13.4346 30.1145 13.4346 30.1146 13.434 30.1129C13.4326 30.1096 13.4286 30.0991 13.4224 30.0822C13.41 30.0482 13.3894 29.9895 13.3653 29.9111C13.3161 29.7512 13.2573 29.5266 13.2189 29.2738C13.133 28.708 13.1928 28.3015 13.3189 28.0801L9.84334 26.1002C9.06401 27.4682 9.12382 28.9497 9.26426 29.8744C9.33905 30.3669 9.45005 30.7882 9.54232 31.0879C9.58893 31.2393 9.63204 31.3639 9.66559 31.4556C9.6824 31.5016 9.69693 31.5397 9.70843 31.5691C9.71419 31.5839 9.7192 31.5964 9.72338 31.6068C9.72547 31.612 9.72735 31.6166 9.72901 31.6207C9.72985 31.6227 9.73062 31.6246 9.73134 31.6264C9.7317 31.6273 9.73205 31.6281 9.73238 31.6289C9.73255 31.6293 9.73279 31.6299 9.73287 31.6301C9.73311 31.6307 9.73334 31.6312 11.5811 30.866ZM11.5811 27.0902C13.136 28.3481 13.1354 28.3489 13.1348 28.3496C13.1346 28.3499 13.134 28.3506 13.1336 28.3511C13.1328 28.352 13.1321 28.3529 13.1314 28.3537C13.13 28.3554 13.1288 28.357 13.1276 28.3583C13.1254 28.3611 13.1236 28.3632 13.1223 28.3648C13.1198 28.3678 13.1193 28.3684 13.1208 28.3666C13.1238 28.3632 13.1349 28.3504 13.1543 28.3294C13.1932 28.2873 13.2652 28.2123 13.3719 28.1123C13.5854 27.9125 13.9372 27.6136 14.4402 27.2793C15.4419 26.6136 17.0606 25.7957 19.4167 25.3456L18.666 21.4166C15.7474 21.9743 13.636 23.011 12.2263 23.9479C11.5236 24.4148 10.9993 24.8542 10.6382 25.1923C10.4576 25.3614 10.3176 25.5053 10.2164 25.6149C10.1658 25.6697 10.1248 25.7159 10.0932 25.7525C10.0774 25.7708 10.0639 25.7867 10.0528 25.8C10.0472 25.8067 10.0423 25.8127 10.0378 25.818C10.0356 25.8207 10.0336 25.8232 10.0317 25.8256C10.0307 25.8268 10.0298 25.8279 10.0289 25.829C10.0284 25.8296 10.0278 25.8303 10.0276 25.8306C10.0269 25.8314 10.0263 25.8322 11.5811 27.0902Z" fill="#00554F" mask="url(#path-2-outside-1_9_186)"/>
<path d="M22.2127 25.3888C26.3532 25.3888 29.4625 21.5388 29.4625 17.1185C29.4625 12.6982 26.3532 8.84814 22.2127 8.84814C18.0722 8.84814 14.9629 12.6982 14.9629 17.1185C14.9629 21.5388 18.0722 25.3888 22.2127 25.3888Z" stroke="#00554F" stroke-width="2" stroke-linecap="round" stroke-linejoin="round"/>
</svg>
